<svg width="369" height="225" xmlns="http://www.w3.org/2000/svg"><g stroke="#DCDCDC" stroke-width="1.5" fill="none" fill-rule="evenodd"><path d="M21.262 1c-6.34 0-11.5 5.234-11.5 11.667 0 .19.026.369.034.555h-.034C4.936 13.222 1 17.215 1 22.112 1 27.006 4.936 31 9.762 31h26.286C42.084 31 47 26.013 47 19.889c0-6.124-4.916-11.111-10.952-11.111-1.374 0-2.657.33-3.868.798C30.824 4.663 26.528 1 21.262 1zM151.738 145c-5.238 0-9.5 4.362-9.5 9.722 0 .16.021.308.028.463h-.028c-3.987 0-7.238 3.328-7.238 7.408s3.251 7.407 7.238 7.407h21.714c4.987 0 9.048-4.156 9.048-9.26 0-5.103-4.06-9.259-9.048-9.259-1.134 0-2.194.275-3.195.666-1.12-4.094-4.668-7.147-9.019-7.147zM267.214 21c-4.135 0-7.5 3.49-7.5 7.778 0 .127.017.246.023.37h-.023c-3.147 0-5.714 2.662-5.714 5.926 0 3.264 2.567 5.926 5.714 5.926h17.143c3.937 0 7.143-3.325 7.143-7.407 0-4.083-3.206-7.408-7.143-7.408-.896 0-1.733.22-2.522.533-.885-3.276-3.686-5.718-7.12-5.718z" stroke-linecap="round" stroke-linejoin="round"/><path d="M24 41v79.5h344.293M154 180l.207 43.5h214.086M269 52v37h99.293" stroke-dasharray="6,6"/></g></svg>